<svg width="66" height="67" viewBox="0 0 66 67" fill="none" xmlns="http://www.w3.org/2000/svg">
<path d="M23.0408 58.8258C13.442 49.2603 13.442 33.7514 23.0407 24.1859C32.6395 14.6203 48.2022 14.6204 57.8009 24.1859C67.3997 33.7515 67.3997 49.2603 57.8009 58.8258C48.2022 68.3914 32.6395 68.3914 23.0408 58.8258Z" fill="#D27815"/>
<path d="M20.6685 26.9838C22.3789 24.6601 24.4892 22.657 26.9013 21.0675C23.7426 34.0664 33.6278 47.7679 49.1819 51.787C53.4779 52.9087 57.9544 53.1714 62.3529 52.5599C61.8099 53.6304 61.1877 54.6591 60.4914 55.6375C54.8735 57.1289 48.9617 57.1289 43.3438 55.6375C28.6076 51.8573 18.9481 39.3503 20.6685 26.9838Z" fill="#D27815"/>
<path d="M32.852 60.7949C32.852 60.7949 20.499 58.6167 17.6082 50.5925C14.7173 42.5683 18.8068 33.3637 8.37162 30.3985C-2.06359 27.4334 -0.244447 18.4115 6.55254 13.2119C13.3495 8.01237 7.96266 1.22485 3.60526 1M42.3849 17.0904C42.3849 17.0904 47.9409 25.7751 42.3849 27.2506C36.8288 28.7262 27.1834 23.7374 28.7769 37.7481C30.3704 51.7588 28.664 57.7453 19.5967 54.0213M53.779 20.9131C53.779 20.9131 62.4938 33.0829 56.9378 38.9148C51.3817 44.7467 43.7245 36.1042 43.5553 45.9412C43.3861 55.7782 44.895 64.0694 33.6842 65.1234M64.877 38.9145C64.877 38.9145 65.709 46.8122 58.1364 47.3463C44.5001 48.3159 49.3651 60.5559 48.7165 64.561M23.0407 24.1859C13.442 33.7514 13.442 49.2603 23.0408 58.8258C32.6395 68.3914 48.2022 68.3914 57.8009 58.8258C67.3997 49.2603 67.3997 33.7515 57.8009 24.1859C48.2022 14.6204 32.6395 14.6203 23.0407 24.1859ZM20.6685 26.9838C22.3789 24.6601 24.4892 22.657 26.9013 21.0675C23.7426 34.0664 33.6278 47.7679 49.1819 51.787C53.4779 52.9087 57.9544 53.1714 62.3529 52.5599C61.8099 53.6304 61.1877 54.6591 60.4914 55.6375C54.8735 57.1289 48.9617 57.1289 43.3438 55.6375C28.6076 51.8573 18.9481 39.3503 20.6685 26.9838Z" stroke="#482E1F" stroke-width="1.26" stroke-miterlimit="10"/>
</svg>
