<svg width="62" height="64" viewBox="0 0 62 64" fill="none" xmlns="http://www.w3.org/2000/svg">
<path d="M41.4623 57.349C37.7835 61.6259 32.1522 62.8092 28.9037 60.0063C28.7568 59.8746 28.619 59.7384 28.4834 59.5952C24.7997 63.422 19.5168 64.4001 16.3878 61.7199C15.5429 60.9322 14.9039 59.9494 14.5269 58.8575C14.1499 57.7656 14.0464 56.598 14.2255 55.4568C11.1864 56.9406 7.89418 56.8748 5.70389 54.95C2.74015 52.3923 2.79413 47.4164 5.61503 43.3227C4.913 43.0733 4.26331 42.6959 3.69892 42.2096C0.459623 39.4021 0.822274 33.6684 4.51258 29.4029C9.47159 23.6751 18.6105 19.0406 23.3843 15.6919C26.8588 13.2484 40.9968 -3.72081 49.1416 -13.6587C61.1694 -9.00349 71.0362 -0.0415392 76.8234 11.4845C67.8135 21.5575 52.7755 38.5364 50.2826 42.4638C47.4798 46.9435 42.0728 56.6443 41.4623 57.349Z" fill="white"/>
<path d="M14.5126 49.3031C16.7005 46.7732 16.4214 44.6983 14.9568 43.4364C13.4922 42.1746 11.4043 42.191 9.21643 44.7209C7.02858 47.2507 6.43839 50.3336 7.90303 51.5954C9.36767 52.8572 12.3248 51.833 14.5126 49.3031Z" fill="#EBB38D"/>
<path d="M25.5276 56.8272C27.7154 54.2973 27.4364 52.2223 25.9717 50.9605C24.5071 49.6986 22.4192 49.7151 20.2313 52.245C18.0435 54.7748 17.4533 57.8576 18.918 59.1195C20.3826 60.3813 23.3328 59.3548 25.5276 56.8272Z" fill="#EBB38D"/>
<path d="M12.4751 36.0353C14.6629 33.5054 14.3908 31.4326 12.9284 30.1639C11.466 28.8952 9.36672 28.9232 7.18573 31.4553C5.00475 33.9874 4.40996 37.0611 5.8746 38.3229C7.33924 39.5848 10.2872 38.5652 12.4751 36.0353Z" fill="#EBB38D"/>
<path d="M39.577 54.4675C41.7649 51.9377 41.4858 49.8627 40.0212 48.6009C38.5565 47.339 36.4687 47.3554 34.2808 49.8853C32.093 52.4152 31.5028 55.498 32.9674 56.7598C34.4321 58.0217 37.3892 56.9974 39.577 54.4675Z" fill="#EBB38D"/>
<path d="M38.9165 43.1017C38.8605 43.1377 38.8019 43.1694 38.7411 43.1964C37.0713 44.026 35.4428 43.6834 33.6962 43.4466C32.2421 43.2447 31.5471 43.9523 30.5053 44.7441C26.1471 48.0538 19.5979 43.6774 21.3956 38.413C21.8177 37.1222 22.4755 35.9008 22.0291 34.5235C21.5292 32.9844 20.3379 31.5839 20.0795 29.9338C19.9871 29.1254 20.0645 28.3067 20.3067 27.5299C20.549 26.7532 20.9508 26.0356 21.4863 25.4231C22.5163 24.2339 23.9761 23.502 25.5452 23.3882C27.1143 23.2743 28.6645 23.7878 29.8554 24.8159C31.1456 25.9371 31.5164 27.2668 31.9092 28.8546C32.9426 33.0384 37.2246 31.1934 39.8418 33.463C42.831 36.0822 42.4444 41.2153 38.9165 43.1017Z" fill="#EBB38D"/>
<path d="M41.4623 57.349C37.7835 61.6259 32.1522 62.8092 28.9037 60.0063C28.7568 59.8746 28.619 59.7384 28.4834 59.5952C24.7997 63.422 19.5168 64.4001 16.3878 61.7199C15.5429 60.9322 14.9039 59.9494 14.5269 58.8575C14.1499 57.7656 14.0464 56.598 14.2255 55.4568C11.1864 56.9406 7.89418 56.8748 5.70389 54.95C2.74015 52.3923 2.79413 47.4164 5.61503 43.3227C4.913 43.0733 4.26331 42.6959 3.69892 42.2096C0.459623 39.4021 0.822274 33.6684 4.51258 29.4029C9.47159 23.6751 18.6105 19.0406 23.3843 15.6919C26.8588 13.2484 40.9968 -3.72081 49.1416 -13.6587C61.1694 -9.00349 71.0362 -0.0415392 76.8234 11.4845C67.8135 21.5575 52.7755 38.5364 50.2826 42.4638C47.4798 46.9435 42.0728 56.6443 41.4623 57.349Z" stroke="#482E1F" stroke-width="1.26" stroke-linecap="round" stroke-linejoin="round"/>
<path d="M14.5126 49.3031C16.7005 46.7732 16.4214 44.6983 14.9568 43.4364C13.4922 42.1746 11.4043 42.191 9.21643 44.7209C7.02858 47.2507 6.43839 50.3336 7.90303 51.5954C9.36767 52.8572 12.3248 51.833 14.5126 49.3031Z" stroke="#482E1F" stroke-width="1.26" stroke-linecap="round" stroke-linejoin="round"/>
<path d="M25.5276 56.8272C27.7154 54.2973 27.4364 52.2223 25.9717 50.9605C24.5071 49.6986 22.4192 49.7151 20.2313 52.245C18.0435 54.7748 17.4533 57.8576 18.918 59.1195C20.3826 60.3813 23.3328 59.3548 25.5276 56.8272Z" stroke="#482E1F" stroke-width="1.26" stroke-linecap="round" stroke-linejoin="round"/>
<path d="M12.4751 36.0353C14.6629 33.5054 14.3908 31.4326 12.9284 30.1639C11.466 28.8952 9.36672 28.9232 7.18573 31.4553C5.00475 33.9874 4.40996 37.0611 5.8746 38.3229C7.33924 39.5848 10.2872 38.5652 12.4751 36.0353Z" stroke="#482E1F" stroke-width="1.26" stroke-linecap="round" stroke-linejoin="round"/>
<path d="M39.577 54.4675C41.7649 51.9377 41.4858 49.8627 40.0212 48.6009C38.5565 47.339 36.4687 47.3554 34.2808 49.8853C32.093 52.4152 31.5028 55.498 32.9674 56.7598C34.4321 58.0217 37.3892 56.9974 39.577 54.4675Z" stroke="#482E1F" stroke-width="1.26" stroke-linecap="round" stroke-linejoin="round"/>
<path d="M38.9165 43.1017C38.8605 43.1377 38.8019 43.1694 38.7411 43.1964C37.0713 44.026 35.4428 43.6834 33.6962 43.4466C32.2421 43.2447 31.5471 43.9523 30.5053 44.7441C26.1471 48.0538 19.5979 43.6774 21.3956 38.413C21.8177 37.1222 22.4755 35.9008 22.0291 34.5235C21.5292 32.9844 20.3379 31.5839 20.0795 29.9338C19.9871 29.1254 20.0645 28.3067 20.3067 27.5299C20.549 26.7532 20.9508 26.0356 21.4863 25.4231C22.5163 24.2339 23.9761 23.502 25.5452 23.3882C27.1143 23.2743 28.6645 23.7878 29.8554 24.8159C31.1456 25.9371 31.5164 27.2668 31.9092 28.8546C32.9426 33.0384 37.2246 31.1934 39.8418 33.463C42.831 36.0822 42.4444 41.2153 38.9165 43.1017Z" stroke="#482E1F" stroke-width="1.26" stroke-linecap="round" stroke-linejoin="round"/>
</svg>
