<svg width="24" height="24" viewBox="0 0 24 24" fill="none" xmlns="http://www.w3.org/2000/svg">
<path fill-rule="evenodd" clip-rule="evenodd" d="M6.52811 3.16663L12.0264 3.16663C12.3766 3.16662 12.6804 3.16661 12.9321 3.18378C13.1977 3.2019 13.4657 3.24189 13.7312 3.35185C14.3274 3.59882 14.8011 4.07253 15.0481 4.66876C15.158 4.93425 15.198 5.20223 15.2161 5.46779C15.2333 5.71955 15.2333 6.02335 15.2333 6.37354V6.39996C15.2333 6.8602 14.8602 7.23329 14.4 7.23329C13.9397 7.23329 13.5666 6.8602 13.5666 6.39996C13.5666 6.01581 13.5662 5.76942 13.5533 5.58124C13.541 5.40054 13.5201 5.33512 13.5083 5.30657C13.4305 5.11872 13.2812 4.96947 13.0934 4.89165C13.0648 4.87983 12.9994 4.85891 12.8187 4.84659C12.6305 4.83375 12.3841 4.83329 12 4.83329H6.55996C6.09817 4.83329 5.80194 4.83394 5.57694 4.85233C5.36167 4.86991 5.28597 4.89949 5.2519 4.91686C5.10764 4.99036 4.99036 5.10764 4.91686 5.2519C4.89949 5.28597 4.86991 5.36167 4.85233 5.57694C4.83394 5.80194 4.83329 6.09817 4.83329 6.55996V12C4.83329 12.3841 4.83375 12.6305 4.84659 12.8187C4.85891 12.9994 4.87983 13.0648 4.89165 13.0934C4.96947 13.2812 5.11872 13.4305 5.30657 13.5083C5.33512 13.5201 5.40054 13.541 5.58124 13.5533C5.76942 13.5662 6.01581 13.5666 6.39996 13.5666C6.8602 13.5666 7.23329 13.9397 7.23329 14.4C7.23329 14.8602 6.8602 15.2333 6.39996 15.2333H6.37354C6.02335 15.2333 5.71955 15.2333 5.46779 15.2161C5.20223 15.198 4.93425 15.158 4.66876 15.0481C4.07253 14.8011 3.59882 14.3274 3.35185 13.7312C3.24189 13.4657 3.2019 13.1977 3.18378 12.9321C3.16661 12.6804 3.16662 12.3766 3.16663 12.0264L3.16663 6.52811C3.16661 6.10727 3.1666 5.74226 3.19119 5.44122C3.2172 5.12289 3.27482 4.80344 3.43185 4.49525C3.66514 4.03739 4.03739 3.66514 4.49525 3.43185C4.80344 3.27482 5.12289 3.2172 5.44122 3.19119C5.74226 3.1666 6.10727 3.16661 6.52811 3.16663ZM12.1281 8.76663H17.4718C17.8926 8.76661 18.2577 8.7666 18.5587 8.79119C18.877 8.8172 19.1965 8.87482 19.5047 9.03185C19.9625 9.26514 20.3348 9.63739 20.5681 10.0953C20.7251 10.4034 20.7827 10.7229 20.8087 11.0412C20.8333 11.3423 20.8333 11.7073 20.8333 12.1281V17.4718C20.8333 17.8927 20.8333 18.2577 20.8087 18.5587C20.7827 18.877 20.7251 19.1965 20.5681 19.5047C20.3348 19.9625 19.9625 20.3348 19.5047 20.5681C19.1965 20.7251 18.877 20.7827 18.5587 20.8087C18.2577 20.8333 17.8927 20.8333 17.4718 20.8333H12.1281C11.7073 20.8333 11.3423 20.8333 11.0412 20.8087C10.7229 20.7827 10.4034 20.7251 10.0953 20.5681C9.63739 20.3348 9.26514 19.9625 9.03185 19.5047C8.87482 19.1965 8.8172 18.877 8.79119 18.5587C8.7666 18.2577 8.76661 17.8926 8.76663 17.4718V12.1281C8.76661 11.7073 8.7666 11.3423 8.79119 11.0412C8.8172 10.7229 8.87482 10.4034 9.03185 10.0953C9.26514 9.63739 9.63739 9.26514 10.0953 9.03185C10.4034 8.87482 10.7229 8.8172 11.0412 8.79119C11.3423 8.7666 11.7073 8.76661 12.1281 8.76663ZM11.1769 10.4523C10.9617 10.4699 10.886 10.4995 10.8519 10.5169C10.7076 10.5904 10.5904 10.7076 10.5169 10.8519C10.4995 10.886 10.4699 10.9617 10.4523 11.1769C10.4339 11.4019 10.4333 11.6982 10.4333 12.16V17.44C10.4333 17.9018 10.4339 18.198 10.4523 18.423C10.4699 18.6382 10.4995 18.7139 10.5169 18.748C10.5904 18.8923 10.7076 19.0096 10.8519 19.0831C10.886 19.1004 10.9617 19.13 11.1769 19.1476C11.4019 19.166 11.6982 19.1666 12.16 19.1666H17.44C17.9018 19.1666 18.198 19.166 18.423 19.1476C18.6382 19.13 18.7139 19.1004 18.748 19.0831C18.8923 19.0096 19.0096 18.8923 19.0831 18.748C19.1004 18.7139 19.13 18.6382 19.1476 18.423C19.166 18.198 19.1666 17.9018 19.1666 17.44V12.16C19.1666 11.6982 19.166 11.4019 19.1476 11.1769C19.13 10.9617 19.1004 10.886 19.0831 10.8519C19.0096 10.7076 18.8923 10.5904 18.748 10.5169C18.7139 10.4995 18.6382 10.4699 18.423 10.4523C18.198 10.4339 17.9018 10.4333 17.44 10.4333H12.16C11.6982 10.4333 11.4019 10.4339 11.1769 10.4523Z" fill="#3D3D3D"/>
</svg>
