<svg width="60" height="60" viewBox="0 0 60 60" fill="none" xmlns="http://www.w3.org/2000/svg">
<path d="M30.0683 0H29.9317C13.4009 0 0 13.4009 0 29.9317V30.0683C0 46.5991 13.4009 60 29.9317 60H30.0683C46.5991 60 60 46.5991 60 30.0683V29.9317C60 13.4009 46.5991 0 30.0683 0Z" fill="#383D38"/>
<path d="M45.0141 16.2273C42.252 14.9597 39.2923 14.0264 36.1959 13.4925C36.1391 13.4819 36.0823 13.5072 36.055 13.5597C35.6745 14.2366 35.252 15.1216 34.9577 15.8153C31.628 15.3171 28.3151 15.3171 25.0527 15.8153C24.7563 15.1048 24.319 14.2366 23.9365 13.5597C23.907 13.5093 23.8503 13.484 23.7956 13.4925C20.7014 14.0264 17.7395 14.9597 14.9774 16.2273C14.9542 16.2378 14.9332 16.2546 14.9185 16.2777C9.30171 24.6693 7.76294 32.8548 8.51759 40.9395C8.5218 40.9794 8.54282 41.0172 8.57435 41.0404C12.2803 43.7626 15.8708 45.4148 19.3939 46.51C19.4506 46.5268 19.5095 46.5058 19.5452 46.4596C20.3776 45.3223 21.1218 44.122 21.7587 42.8587C21.7966 42.7851 21.7587 42.6968 21.683 42.6674C20.5037 42.2196 19.3833 41.6752 18.3028 41.0572C18.2167 41.0067 18.2104 40.8848 18.2882 40.826C18.5152 40.6557 18.7422 40.4791 18.9587 40.3004C18.9987 40.2668 19.0533 40.2605 19.0995 40.2815C26.1899 43.5187 33.8668 43.5187 40.873 40.2815C40.9193 40.2584 40.9739 40.2668 41.0139 40.2983C41.2304 40.477 41.4574 40.6557 41.6865 40.826C41.7643 40.8848 41.7601 41.0067 41.6739 41.0572C40.5956 41.6878 39.473 42.2217 38.2917 42.6674C38.2139 42.6968 38.1802 42.7851 38.2181 42.8608C38.8697 44.1199 39.6118 45.3202 40.4295 46.4596C40.4631 46.5079 40.5241 46.5289 40.5808 46.5121C44.1207 45.4169 47.7111 43.7647 51.4171 41.0425C51.4486 41.0194 51.4697 40.9815 51.4739 40.9437C52.3778 31.5978 49.9604 23.4795 45.0688 16.2819C45.0562 16.2588 45.0373 16.2399 45.012 16.2294L45.0141 16.2273ZM22.8139 36.0164C20.6782 36.0164 18.9209 34.0572 18.9209 31.6503C18.9209 29.2434 20.6467 27.2843 22.8139 27.2843C24.9812 27.2843 26.7427 29.2624 26.707 31.6503C26.707 34.0572 24.9812 36.0164 22.8139 36.0164ZM37.2111 36.0164C35.0754 36.0164 33.3181 34.0572 33.3181 31.6503C33.3181 29.2434 35.0439 27.2843 37.2111 27.2843C39.3784 27.2843 41.14 29.2624 41.1042 31.6503C41.1042 34.0572 39.3973 36.0164 37.2111 36.0164Z" fill="white"/>
</svg>