<svg width="46" height="38" viewBox="0 0 46 38" fill="none" xmlns="http://www.w3.org/2000/svg">
<path d="M34.1597 11.4415C34.2492 11.7035 34.3527 11.9605 34.4697 12.2115C36.5497 16.4315 41.7997 15.3815 44.2697 12.2715C40.3774 9.82893 37.4542 6.11042 35.9997 1.75146C33.7697 4.01147 33.1297 8.44146 34.1597 11.4415Z" fill="#BBD8D4"/>
<path d="M35.9998 0.131363C32.9998 2.36136 31.7198 7.47137 32.8198 11.3314L30.9998 12.3914L29.7098 10.1414C29.6181 10.013 29.4815 9.92375 29.3272 9.89123C29.1728 9.8587 29.0118 9.88528 28.8761 9.96571C28.7404 10.0461 28.6398 10.1746 28.5942 10.3256C28.5486 10.4766 28.5613 10.6393 28.6298 10.7814L29.9998 13.0514L27.7098 14.4414C27.0048 13.3714 26.354 12.2667 25.7598 11.1314C25.3998 10.4014 24.3198 11.0514 24.6798 11.7714C25.2843 12.9143 25.952 14.0227 26.6798 15.0914L23.8698 16.8014C22.7698 15.2014 21.6798 13.6014 20.6098 11.9814C20.1698 11.3014 19.0798 11.9814 19.5298 12.6214C20.5965 14.2414 21.6865 15.8514 22.7998 17.4514L20.1298 19.0714C19.0498 17.3247 17.9565 15.5747 16.8498 13.8214C16.4198 13.1414 15.3298 13.8214 15.7698 14.4714C16.8798 16.2114 17.9698 17.9714 19.0598 19.7314L16.6098 21.2214L13.9498 17.0814C13.5198 16.3914 12.4298 17.0814 12.8698 17.7214L15.5298 21.8714L13.5798 23.0614L10.1498 17.0614C10.0996 16.9613 10.02 16.879 9.9217 16.8254C9.82342 16.7718 9.71115 16.7495 9.59983 16.7614H9.43983C7.08776 17.2905 4.94716 18.5096 3.29212 20.2626C1.63709 22.0157 0.542945 24.2228 0.149819 26.6014C-0.236742 28.7383 0.13015 30.9432 1.18787 32.8398C2.2456 34.7364 3.92864 36.2072 5.94984 37.0014C8.24265 37.8568 10.767 37.8568 13.0598 37.0014C14.4075 36.4614 15.6652 35.7195 16.7898 34.8014C17.4098 34.3214 18.5398 33.7014 18.7898 32.9014C19.0398 32.1014 18.0898 30.9014 17.6698 30.1714L15.3798 26.1714L14.2298 24.1714L16.2298 22.9514L19.3498 27.8314C19.7898 28.5114 20.8698 27.8314 20.4298 27.1914L17.3098 22.3014L19.7298 20.8214C20.8432 22.6347 21.9332 24.448 22.9998 26.2614C23.0419 26.3329 23.0976 26.3955 23.1638 26.4456C23.23 26.4956 23.3054 26.5321 23.3857 26.553C23.466 26.5739 23.5497 26.5788 23.6319 26.5673C23.7141 26.5559 23.7932 26.5284 23.8648 26.4864C23.9364 26.4443 23.999 26.3886 24.049 26.3224C24.0991 26.2562 24.1356 26.1808 24.1565 26.1005C24.1774 26.0201 24.1822 25.9365 24.1708 25.8543C24.1594 25.7721 24.1318 25.6929 24.0898 25.6214C23.0098 23.7914 21.9098 21.9814 20.8098 20.1714L23.5398 18.5114C24.6798 20.1414 25.8498 21.7714 27.0298 23.3814C27.4998 24.0314 28.5898 23.3814 28.1098 22.7414C26.9298 21.1214 25.7598 19.4914 24.6198 17.8514L27.3898 16.1614C28.1498 17.2814 28.9298 18.3914 29.6598 19.5114C30.1098 20.1914 31.1898 19.5114 30.7398 18.8614C30.0098 17.7514 29.2298 16.6314 28.4698 15.5114L30.6898 14.1614C31.1098 14.9014 31.5298 15.6514 31.9598 16.3914C32.3898 17.1314 33.4398 16.4514 33.0398 15.7414L31.7598 13.5114L33.3298 12.5114C33.5104 12.9464 33.7349 13.3619 33.9998 13.7514C36.9998 17.8514 42.5798 16.4514 45.3398 12.9714C45.5008 12.7823 45.6479 12.5817 45.7798 12.3714C45.8585 12.2253 45.8763 12.0541 45.8295 11.895C45.7827 11.7359 45.675 11.6016 45.5298 11.5214C41.5255 9.19247 38.5311 5.45668 37.1298 1.04136C37.0953 0.917971 37.0216 0.809155 36.9198 0.731364C36.9198 0.271364 36.4398 -0.248637 35.9998 0.131363ZM15.9998 29.9714C16.2698 30.4414 16.5598 30.9114 16.8098 31.4014C17.0259 31.6685 17.1735 31.9843 17.2398 32.3214C17.4598 32.668 17.3398 32.918 16.8798 33.0714C16.0669 33.8967 15.1159 34.5735 14.0698 35.0714C11.9972 36.286 9.53271 36.6448 7.19984 36.0714C5.16738 35.5287 3.42482 34.2185 2.33921 32.4166C1.2536 30.6147 0.909667 28.4618 1.37983 26.4114C1.77335 24.4249 2.71691 22.589 4.10304 21.1127C5.48916 19.6364 7.2621 18.5791 9.21983 18.0614C10.3898 20.0614 11.5398 22.1314 12.7098 24.1614L15.9998 29.9714ZM44.2697 12.2715C41.7997 15.3815 36.5497 16.4315 34.4697 12.2115C34.3527 11.9605 34.2492 11.7035 34.1597 11.4415C33.1597 8.44146 33.7698 4.01136 35.9898 1.75136C37.4469 6.11184 40.3737 9.83066 44.2697 12.2715Z" fill="#482E1F"/>
<path d="M1.37974 26.4514C0.909581 28.5018 1.25351 30.6547 2.33912 32.4566C3.42474 34.2585 5.16729 35.5687 7.19975 36.1114C9.53263 36.6848 11.9971 36.326 14.0697 35.1114C15.1158 34.6135 16.0668 33.9367 16.8797 33.1114C17.3397 32.958 17.4597 32.708 17.2397 32.3614C17.1734 32.0243 17.0258 31.7084 16.8097 31.4414C16.5597 30.9514 16.2697 30.4414 15.9997 30.0114L12.7097 24.2414C11.5397 22.2414 10.3897 20.1714 9.21974 18.1414C7.26724 18.6561 5.49791 19.7073 4.11226 21.176C2.7266 22.6448 1.78002 24.4722 1.37974 26.4514ZM7.45973 24.1614L7.36973 27.0014C8.16228 27.0513 8.95719 27.0513 9.74974 27.0014C10.5597 26.9414 10.5597 28.2014 9.74974 28.2614C8.94051 28.3113 8.12898 28.3113 7.31975 28.2614C7.31975 29.4014 7.24973 30.5414 7.20973 31.6814C7.20973 32.4814 5.91975 32.5014 5.94975 31.6814C5.94975 30.5014 6.02974 29.3314 6.05974 28.1514C5.24565 28.0677 4.43748 27.9341 3.63975 27.7514C3.4844 27.7045 3.35311 27.5995 3.27327 27.4582C3.19342 27.317 3.17117 27.1503 3.21113 26.9931C3.2511 26.8358 3.35018 26.7 3.48778 26.614C3.62537 26.528 3.79087 26.4984 3.94975 26.5314C4.65975 26.6914 5.37975 26.8114 6.09975 26.9014L6.18974 24.1614C6.22974 23.3614 7.48973 23.3414 7.45973 24.1614Z" fill="#BBD8D4"/>
<path d="M6.1997 24.1714L6.10967 26.9114C5.38967 26.8214 4.66968 26.7014 3.95968 26.5414C3.8008 26.5084 3.63533 26.538 3.49773 26.6241C3.36014 26.7101 3.26102 26.8459 3.22106 27.0031C3.1811 27.1604 3.20338 27.327 3.28323 27.4683C3.36307 27.6095 3.49433 27.7145 3.64968 27.7614C4.4474 27.9441 5.2556 28.0777 6.06969 28.1614C6.06969 29.3414 5.99968 30.5114 5.95968 31.6914C5.95968 32.5014 7.18969 32.4814 7.21969 31.6914C7.21969 30.5514 7.29967 29.4114 7.32967 28.2714C8.1389 28.3214 8.95047 28.3214 9.7597 28.2714C10.5597 28.2114 10.5597 26.9514 9.7597 27.0114C8.96715 27.0613 8.17224 27.0613 7.37969 27.0114L7.46969 24.1714C7.48969 23.3414 6.2297 23.3614 6.1997 24.1714Z" fill="#482E1F"/>
</svg>
