<svg width="37" height="38" viewBox="0 0 37 38" fill="none" xmlns="http://www.w3.org/2000/svg">
<path fill-rule="evenodd" clip-rule="evenodd" d="M16.6233 17.5388C19.9317 17.1776 22.5537 16.7577 25.1787 16.6071C27.736 16.5387 30.2356 17.3736 32.2384 18.9652C34.2412 20.5568 35.6192 22.8031 36.1302 25.3098C36.379 26.1987 36.2975 27.1476 35.9009 27.981C35.5042 28.8145 34.8192 29.4761 33.9724 29.8436C32.4944 30.4818 30.9418 30.9313 29.3513 31.1814C28.0306 31.2994 26.7028 31.3156 25.3796 31.23C25.2097 32.6141 24.9576 33.9867 24.6245 35.3408C24.5083 35.8364 24.2804 36.2989 23.9581 36.693C23.6359 37.087 23.2278 37.4022 22.7651 37.6144C22.3024 37.8266 21.7973 37.9303 21.2884 37.9174C20.7795 37.9046 20.2803 37.7756 19.8289 37.5403C18.1018 36.7471 16.6649 35.6611 16.3879 33.5426C15.9593 30.1128 15.3694 26.6803 15.2511 23.2371C15.2059 21.5703 16.0488 19.8378 16.6233 17.5388Z" fill="#D27815"/>
<path fill-rule="evenodd" clip-rule="evenodd" d="M13.8738 0.588073C17.0693 0.299384 17.9726 0.952223 19.3893 4.05004C20.0492 5.31111 20.3398 6.73283 20.2275 8.1517C20.1152 9.57057 19.6047 10.9289 18.7546 12.0705C18.4548 12.6119 17.9697 13.027 17.3884 13.2394C16.8071 13.4519 16.1687 13.4474 15.5905 13.2268C11.1976 11.3931 9.16304 8.7154 9.48687 5.19362C9.77616 2.00414 10.6338 0.873532 13.8738 0.588073Z" fill="#D27815"/>
<path fill-rule="evenodd" clip-rule="evenodd" d="M34.23 2.26869C37.3174 7.74289 37.1943 10.1239 34.0221 12.9387C31.8663 14.8451 28.2824 14.182 27.61 11.4564C27.1399 9.30061 27.0234 7.08268 27.2651 4.88948C27.4099 4.42504 27.6627 4.00155 28.0028 3.65364C28.3428 3.30574 28.7605 3.04333 29.2215 2.88792C30.8705 2.54037 32.546 2.3332 34.23 2.26869Z" fill="#D27815"/>
<path fill-rule="evenodd" clip-rule="evenodd" d="M12.1712 32.4571C10.7445 33.273 9.22779 34.2796 7.60015 35.0226C6.54946 35.3647 5.41871 35.3737 4.36271 35.0484C3.3067 34.7231 2.37704 34.0794 1.70098 33.2053C0.613792 31.3151 1.10807 28.3288 2.94321 27.1973C3.94876 26.5078 5.12318 26.1053 6.34026 26.0331C7.55734 25.9609 8.7711 26.2217 9.85113 26.7874C12.2349 27.9241 12.9596 29.6804 12.1712 32.4571Z" fill="#D27815"/>
<path fill-rule="evenodd" clip-rule="evenodd" d="M6.85934 22.033C3.54667 22.5777 1.85744 21.8187 0.646389 19.8432C-0.75298 17.5583 0.349673 14.468 2.97092 14.2454C4.97489 14.1018 6.98269 14.4662 8.80838 15.3049C9.70902 15.7467 10.0933 17.6847 10.2535 19.0011C10.262 19.6191 10.0613 20.2219 9.68394 20.7115C9.3066 21.201 8.77481 21.5486 8.17497 21.6978C7.39596 21.9911 6.59385 22.1079 6.85934 22.033Z" fill="#D27815"/>
</svg>
