<svg width="27" height="23" viewBox="0 0 30 23" fill="none" xmlns="http://www.w3.org/2000/svg">
<path fill-rule="evenodd" clip-rule="evenodd" d="M1.86379 9.74664C8.86027 6.69839 13.5257 4.68879 15.8601 3.71786C22.5251 0.945634 23.91 0.464069 24.8127 0.448168C25.0113 0.44467 25.4552 0.493874 25.7427 0.727199C25.9855 0.924215 26.0523 1.19036 26.0843 1.37715C26.1163 1.56394 26.1561 1.98946 26.1244 2.32195C25.7633 6.11691 24.2004 15.3263 23.4053 19.5767C23.0689 21.3752 22.4065 21.9783 21.7652 22.0373C20.3714 22.1655 19.3131 21.1162 17.9632 20.2313C15.8509 18.8467 14.6576 17.9847 12.6072 16.6336C10.2377 15.0721 11.7738 14.2139 13.1242 12.8113C13.4776 12.4442 19.6183 6.8587 19.7372 6.35201C19.7521 6.28864 19.7659 6.05242 19.6255 5.92769C19.4852 5.80296 19.2781 5.84561 19.1286 5.87954C18.9168 5.92762 15.5423 8.158 9.00528 12.5707C8.04746 13.2284 7.17989 13.5489 6.40258 13.5321C5.54565 13.5135 3.89727 13.0475 2.67187 12.6492C1.16887 12.1606 -0.0256833 11.9023 0.0783357 11.0726C0.132515 10.6404 0.727665 10.1984 1.86379 9.74664Z" fill="white"/>
</svg>